<svg width="1170" height="550" viewBox="0 0 1170 550" fill="none" xmlns="http://www.w3.org/2000/svg">
<rect width="1170" height="550" rx="32" fill="#12132D"/>
<path d="M1088.52 267.653C1115.02 248.031 1170 266.826 1170 299.8V518C1170 535.673 1155.67 550 1138 550H32C14.3269 550 0 535.673 0 518V374.733C0 353.888 25.2146 341.573 43.6437 351.315C96.7381 379.3 162.964 390.52 225.476 382.101C290.986 373.293 349.22 344.504 408.168 319.771C467.115 295.038 532.308 273.409 598.096 280.705C650.807 286.553 697.54 310.299 747.804 324.413C831.494 347.909 926.56 343.58 1006.46 312.634C1036.39 301.044 1064.05 285.77 1088.52 267.653Z" fill="#9DCFEA" fill-opacity="0.07"/>
<path d="M1135.64 295.324C1154.22 295.445 1170 310.061 1170 328.639V516.918C1170 534.592 1155.67 548.918 1138 548.918H32C14.3269 548.918 0 534.592 0 516.918V396.402C0 376.605 17.8943 361.703 37.6885 361.333C44.7445 361.201 51.7941 360.707 58.7808 359.849C111.633 353.213 157.307 330.653 203.465 311.135C249.622 291.617 301.758 274.17 354.915 279.424C444.012 288.226 510.884 358.113 600.36 351.565C662.138 347.037 705.886 307.422 761.411 287.591C825.282 264.773 901.234 269.408 971.521 278.513C1025.88 285.55 1080.85 294.967 1135.64 295.324Z" fill="white" fill-opacity="0.05"/>
<path d="M1121.5 391.117C1144.28 383.533 1170 399.341 1170 423.35V516.595C1170 534.268 1155.67 548.595 1138 548.595H32C14.3269 548.595 0 534.268 0 516.595V371.79C0 364.083 2.70093 356.554 8.13277 351.087C28.6394 330.446 54.9763 313.882 84.5984 303.656C136.88 285.634 198.458 287.756 248.805 309.311C299.348 330.952 336.497 369.787 384.747 394.851C453.237 430.428 543.243 434.789 616.148 406.061C656.79 390.048 692.967 364.366 737.111 357.503C805.943 346.807 870.76 384.13 938.024 400.409C998.24 414.985 1063.35 410.48 1121.5 391.117Z" fill="white" fill-opacity="0.03"/>
<path d="M1146.37 441.376C1159.45 442.009 1170 452.612 1170 465.709V518C1170 535.673 1155.67 550 1138 550H32C14.3269 550 0 535.673 0 518V459.873C0 446.352 8.46409 434.112 21.6333 431.052C57.6841 422.675 101.376 421.546 140.907 424.849C203.023 430.041 262.479 443.651 325.204 445.684C470.242 450.388 600.965 393.241 746.186 390.638C814.972 389.405 882.291 400.562 947.392 412.667C1012.49 424.773 1077.82 438.073 1146.37 441.376Z" fill="white" fill-opacity="0.01"/>
<rect x="100" y="395" width="400" height="56" rx="28" fill="white"/>
<path d="M125.104 429.144C124.197 429.144 123.381 429.027 122.656 428.792C121.931 428.557 121.301 428.227 120.768 427.8L121.28 426.616C121.653 426.893 122.032 427.128 122.416 427.32C122.8 427.501 123.211 427.64 123.648 427.736C124.096 427.821 124.581 427.864 125.104 427.864C126.032 427.864 126.715 427.699 127.152 427.368C127.6 427.027 127.824 426.579 127.824 426.024C127.824 425.544 127.669 425.176 127.36 424.92C127.051 424.664 126.512 424.461 125.744 424.312L124.032 423.96C122.997 423.747 122.224 423.4 121.712 422.92C121.211 422.429 120.96 421.768 120.96 420.936C120.96 420.264 121.136 419.677 121.488 419.176C121.851 418.664 122.347 418.269 122.976 417.992C123.616 417.715 124.363 417.576 125.216 417.576C126.005 417.576 126.736 417.693 127.408 417.928C128.08 418.163 128.645 418.509 129.104 418.968L128.592 420.104C128.112 419.667 127.595 419.352 127.04 419.16C126.496 418.957 125.877 418.856 125.184 418.856C124.341 418.856 123.675 419.037 123.184 419.4C122.693 419.763 122.448 420.253 122.448 420.872C122.448 421.363 122.603 421.752 122.912 422.04C123.221 422.317 123.733 422.531 124.448 422.68L126.16 423.016C127.248 423.229 128.043 423.565 128.544 424.024C129.056 424.483 129.312 425.117 129.312 425.928C129.312 426.568 129.141 427.133 128.8 427.624C128.459 428.104 127.973 428.477 127.344 428.744C126.715 429.011 125.968 429.144 125.104 429.144ZM134.927 429.144C133.647 429.144 132.634 428.776 131.887 428.04C131.151 427.304 130.783 426.291 130.783 425C130.783 424.147 130.943 423.411 131.263 422.792C131.594 422.163 132.047 421.677 132.623 421.336C133.199 420.984 133.871 420.808 134.639 420.808C135.375 420.808 135.999 420.968 136.511 421.288C137.023 421.597 137.412 422.04 137.679 422.616C137.946 423.192 138.079 423.875 138.079 424.664V425.144H131.919V424.28H137.087L136.815 424.488C136.815 423.656 136.628 423.011 136.255 422.552C135.892 422.093 135.354 421.864 134.639 421.864C133.86 421.864 133.258 422.136 132.831 422.68C132.404 423.213 132.191 423.944 132.191 424.872V425.016C132.191 425.997 132.431 426.739 132.911 427.24C133.402 427.741 134.079 427.992 134.943 427.992C135.423 427.992 135.871 427.923 136.287 427.784C136.703 427.645 137.103 427.416 137.487 427.096L137.967 428.104C137.604 428.435 137.151 428.691 136.607 428.872C136.074 429.053 135.514 429.144 134.927 429.144ZM143.054 429.144C142.35 429.144 141.731 428.979 141.198 428.648C140.664 428.317 140.248 427.837 139.95 427.208C139.651 426.579 139.502 425.832 139.502 424.968C139.502 424.104 139.651 423.363 139.95 422.744C140.248 422.115 140.664 421.635 141.198 421.304C141.731 420.973 142.35 420.808 143.054 420.808C143.768 420.808 144.387 420.989 144.91 421.352C145.443 421.704 145.795 422.189 145.966 422.808H145.774L145.95 420.952H147.358C147.326 421.272 147.294 421.592 147.262 421.912C147.24 422.232 147.23 422.547 147.23 422.856V429H145.774V427.16H145.95C145.779 427.768 145.427 428.253 144.894 428.616C144.371 428.968 143.758 429.144 143.054 429.144ZM143.39 427.992C144.115 427.992 144.696 427.736 145.134 427.224C145.571 426.712 145.79 425.96 145.79 424.968C145.79 423.976 145.571 423.229 145.134 422.728C144.696 422.227 144.115 421.976 143.39 421.976C142.664 421.976 142.078 422.227 141.63 422.728C141.192 423.229 140.974 423.976 140.974 424.968C140.974 425.96 141.192 426.712 141.63 427.224C142.067 427.736 142.654 427.992 143.39 427.992ZM149.653 429V422.92C149.653 422.6 149.642 422.275 149.621 421.944C149.61 421.603 149.584 421.272 149.541 420.952H150.949L151.125 422.968L150.885 422.984C150.992 422.493 151.173 422.088 151.429 421.768C151.696 421.437 152.01 421.197 152.373 421.048C152.746 420.888 153.13 420.808 153.525 420.808C153.696 420.808 153.84 420.813 153.957 420.824C154.074 420.835 154.192 420.861 154.309 420.904L154.277 422.2C154.117 422.136 153.968 422.099 153.829 422.088C153.701 422.067 153.541 422.056 153.349 422.056C152.88 422.056 152.474 422.163 152.133 422.376C151.802 422.589 151.546 422.872 151.365 423.224C151.194 423.576 151.109 423.955 151.109 424.36V429H149.653ZM158.938 429.144C158.138 429.144 157.444 428.979 156.858 428.648C156.271 428.307 155.812 427.821 155.482 427.192C155.162 426.552 155.002 425.795 155.002 424.92C155.002 424.056 155.167 423.32 155.498 422.712C155.828 422.093 156.287 421.624 156.874 421.304C157.46 420.973 158.148 420.808 158.938 420.808C159.46 420.808 159.967 420.899 160.458 421.08C160.948 421.251 161.348 421.501 161.658 421.832L161.162 422.856C160.852 422.557 160.511 422.339 160.138 422.2C159.764 422.051 159.396 421.976 159.034 421.976C158.244 421.976 157.626 422.232 157.178 422.744C156.73 423.245 156.506 423.976 156.506 424.936C156.506 425.907 156.73 426.653 157.178 427.176C157.626 427.699 158.244 427.96 159.034 427.96C159.386 427.96 159.748 427.891 160.122 427.752C160.495 427.613 160.842 427.395 161.162 427.096L161.658 428.104C161.338 428.445 160.927 428.707 160.426 428.888C159.935 429.059 159.439 429.144 158.938 429.144ZM163.435 429V417.224H164.891V422.696H164.683C164.917 422.077 165.296 421.608 165.819 421.288C166.341 420.968 166.944 420.808 167.627 420.808C168.597 420.808 169.312 421.069 169.771 421.592C170.24 422.115 170.475 422.904 170.475 423.96V429H169.019V424.04C169.019 423.325 168.88 422.808 168.603 422.488C168.325 422.157 167.872 421.992 167.243 421.992C166.539 421.992 165.968 422.211 165.531 422.648C165.104 423.085 164.891 423.667 164.891 424.392V429H163.435ZM177.075 429V417.224H178.531V422.696H178.323C178.558 422.077 178.937 421.608 179.459 421.288C179.982 420.968 180.585 420.808 181.267 420.808C182.238 420.808 182.953 421.069 183.411 421.592C183.881 422.115 184.115 422.904 184.115 423.96V429H182.659V424.04C182.659 423.325 182.521 422.808 182.243 422.488C181.966 422.157 181.513 421.992 180.883 421.992C180.179 421.992 179.609 422.211 179.171 422.648C178.745 423.085 178.531 423.667 178.531 424.392V429H177.075ZM190.161 429.144C188.881 429.144 187.868 428.776 187.121 428.04C186.385 427.304 186.017 426.291 186.017 425C186.017 424.147 186.177 423.411 186.497 422.792C186.828 422.163 187.281 421.677 187.857 421.336C188.433 420.984 189.105 420.808 189.873 420.808C190.609 420.808 191.233 420.968 191.745 421.288C192.257 421.597 192.647 422.04 192.913 422.616C193.18 423.192 193.313 423.875 193.313 424.664V425.144H187.153V424.28H192.321L192.049 424.488C192.049 423.656 191.863 423.011 191.489 422.552C191.127 422.093 190.588 421.864 189.873 421.864C189.095 421.864 188.492 422.136 188.065 422.68C187.639 423.213 187.425 423.944 187.425 424.872V425.016C187.425 425.997 187.665 426.739 188.145 427.24C188.636 427.741 189.313 427.992 190.177 427.992C190.657 427.992 191.105 427.923 191.521 427.784C191.937 427.645 192.337 427.416 192.721 427.096L193.201 428.104C192.839 428.435 192.385 428.691 191.841 428.872C191.308 429.053 190.748 429.144 190.161 429.144ZM195.2 429V422.92C195.2 422.6 195.189 422.275 195.168 421.944C195.157 421.603 195.131 421.272 195.088 420.952H196.496L196.672 422.968L196.432 422.984C196.539 422.493 196.72 422.088 196.976 421.768C197.243 421.437 197.557 421.197 197.92 421.048C198.293 420.888 198.677 420.808 199.072 420.808C199.243 420.808 199.387 420.813 199.504 420.824C199.621 420.835 199.739 420.861 199.856 420.904L199.824 422.2C199.664 422.136 199.515 422.099 199.376 422.088C199.248 422.067 199.088 422.056 198.896 422.056C198.427 422.056 198.021 422.163 197.68 422.376C197.349 422.589 197.093 422.872 196.912 423.224C196.741 423.576 196.656 423.955 196.656 424.36V429H195.2ZM204.693 429.144C203.413 429.144 202.399 428.776 201.653 428.04C200.917 427.304 200.549 426.291 200.549 425C200.549 424.147 200.709 423.411 201.029 422.792C201.359 422.163 201.813 421.677 202.389 421.336C202.965 420.984 203.637 420.808 204.405 420.808C205.141 420.808 205.765 420.968 206.277 421.288C206.789 421.597 207.178 422.04 207.445 422.616C207.711 423.192 207.845 423.875 207.845 424.664V425.144H201.685V424.28H206.853L206.581 424.488C206.581 423.656 206.394 423.011 206.021 422.552C205.658 422.093 205.119 421.864 204.405 421.864C203.626 421.864 203.023 422.136 202.597 422.68C202.17 423.213 201.957 423.944 201.957 424.872V425.016C201.957 425.997 202.197 426.739 202.677 427.24C203.167 427.741 203.845 427.992 204.709 427.992C205.189 427.992 205.637 427.923 206.053 427.784C206.469 427.645 206.869 427.416 207.253 427.096L207.733 428.104C207.37 428.435 206.917 428.691 206.373 428.872C205.839 429.053 205.279 429.144 204.693 429.144ZM217.038 429.144C216.334 429.144 215.715 428.979 215.182 428.648C214.649 428.317 214.233 427.837 213.934 427.208C213.635 426.579 213.486 425.832 213.486 424.968C213.486 424.104 213.635 423.363 213.934 422.744C214.233 422.115 214.649 421.635 215.182 421.304C215.715 420.973 216.334 420.808 217.038 420.808C217.753 420.808 218.371 420.989 218.894 421.352C219.427 421.704 219.779 422.189 219.95 422.808H219.758L219.934 420.952H221.342C221.31 421.272 221.278 421.592 221.246 421.912C221.225 422.232 221.214 422.547 221.214 422.856V429H219.758V427.16H219.934C219.763 427.768 219.411 428.253 218.878 428.616C218.355 428.968 217.742 429.144 217.038 429.144ZM217.374 427.992C218.099 427.992 218.681 427.736 219.118 427.224C219.555 426.712 219.774 425.96 219.774 424.968C219.774 423.976 219.555 423.229 219.118 422.728C218.681 422.227 218.099 421.976 217.374 421.976C216.649 421.976 216.062 422.227 215.614 422.728C215.177 423.229 214.958 423.976 214.958 424.968C214.958 425.96 215.177 426.712 215.614 427.224C216.051 427.736 216.638 427.992 217.374 427.992ZM223.654 429V422.856C223.654 422.547 223.643 422.232 223.622 421.912C223.6 421.592 223.568 421.272 223.526 420.952H224.934L225.094 422.68H224.902C225.147 422.072 225.526 421.608 226.038 421.288C226.55 420.968 227.147 420.808 227.83 420.808C228.779 420.808 229.494 421.069 229.974 421.592C230.454 422.104 230.694 422.904 230.694 423.992V429H229.238V424.072C229.238 423.336 229.094 422.808 228.806 422.488C228.518 422.157 228.07 421.992 227.462 421.992C226.736 421.992 226.16 422.211 225.734 422.648C225.318 423.085 225.11 423.677 225.11 424.424V429H223.654ZM232.725 432.632L232.389 431.448C232.891 431.331 233.307 431.192 233.637 431.032C233.968 430.883 234.245 430.685 234.469 430.44C234.693 430.195 234.891 429.885 235.061 429.512L235.461 428.552L235.429 429.16L231.925 420.952H233.493L236.293 427.848H235.877L238.677 420.952H240.181L236.485 429.624C236.261 430.147 236.016 430.584 235.749 430.936C235.493 431.288 235.211 431.576 234.901 431.8C234.603 432.024 234.272 432.2 233.909 432.328C233.547 432.456 233.152 432.557 232.725 432.632ZM244.708 429.144C243.866 429.144 243.226 428.915 242.788 428.456C242.362 427.987 242.148 427.283 242.148 426.344V422.072H240.58V420.952H242.148V418.792L243.604 418.392V420.952H245.876V422.072H243.604V426.216C243.604 426.835 243.711 427.277 243.924 427.544C244.148 427.8 244.468 427.928 244.884 427.928C245.098 427.928 245.279 427.912 245.428 427.88C245.588 427.837 245.732 427.789 245.86 427.736V428.936C245.7 429 245.514 429.048 245.3 429.08C245.098 429.123 244.9 429.144 244.708 429.144ZM247.404 429V417.224H248.86V422.696H248.652C248.886 422.077 249.265 421.608 249.788 421.288C250.31 420.968 250.913 420.808 251.596 420.808C252.566 420.808 253.281 421.069 253.74 421.592C254.209 422.115 254.444 422.904 254.444 423.96V429H252.988V424.04C252.988 423.325 252.849 422.808 252.572 422.488C252.294 422.157 251.841 421.992 251.212 421.992C250.508 421.992 249.937 422.211 249.5 422.648C249.073 423.085 248.86 423.667 248.86 424.392V429H247.404ZM256.825 429V420.952H258.281V429H256.825ZM256.697 419.192V417.624H258.425V419.192H256.697ZM260.716 429V422.856C260.716 422.547 260.705 422.232 260.684 421.912C260.663 421.592 260.631 421.272 260.588 420.952H261.996L262.156 422.68H261.964C262.209 422.072 262.588 421.608 263.1 421.288C263.612 420.968 264.209 420.808 264.892 420.808C265.841 420.808 266.556 421.069 267.036 421.592C267.516 422.104 267.756 422.904 267.756 423.992V429H266.3V424.072C266.3 423.336 266.156 422.808 265.868 422.488C265.58 422.157 265.132 421.992 264.524 421.992C263.799 421.992 263.223 422.211 262.796 422.648C262.38 423.085 262.172 423.677 262.172 424.424V429H260.716ZM273.722 432.584C273.018 432.584 272.373 432.499 271.786 432.328C271.199 432.157 270.671 431.896 270.202 431.544L270.586 430.472C270.917 430.696 271.242 430.877 271.562 431.016C271.882 431.155 272.213 431.256 272.554 431.32C272.906 431.384 273.269 431.416 273.642 431.416C274.431 431.416 275.023 431.213 275.418 430.808C275.813 430.403 276.01 429.827 276.01 429.08V426.824H276.17C275.999 427.432 275.647 427.917 275.114 428.28C274.591 428.632 273.973 428.808 273.258 428.808C272.533 428.808 271.898 428.648 271.354 428.328C270.821 427.997 270.405 427.533 270.106 426.936C269.807 426.328 269.658 425.619 269.658 424.808C269.658 423.987 269.807 423.277 270.106 422.68C270.405 422.083 270.821 421.624 271.354 421.304C271.898 420.973 272.533 420.808 273.258 420.808C273.973 420.808 274.591 420.984 275.114 421.336C275.637 421.688 275.983 422.173 276.154 422.792L276.01 422.648L276.154 420.952H277.562C277.53 421.272 277.498 421.592 277.466 421.912C277.445 422.232 277.434 422.547 277.434 422.856V428.904C277.434 430.099 277.119 431.011 276.49 431.64C275.871 432.269 274.949 432.584 273.722 432.584ZM273.578 427.656C274.314 427.656 274.901 427.405 275.338 426.904C275.775 426.403 275.994 425.704 275.994 424.808C275.994 423.901 275.775 423.203 275.338 422.712C274.901 422.221 274.314 421.976 273.578 421.976C272.831 421.976 272.234 422.221 271.786 422.712C271.349 423.203 271.13 423.901 271.13 424.808C271.13 425.704 271.349 426.403 271.786 426.904C272.234 427.405 272.831 427.656 273.578 427.656Z" fill="#030712" fill-opacity="0.5"/>
<rect x="374" y="401" width="121" height="44" rx="22" fill="#797DFC"/>
<path d="M408.406 430.7C407.272 430.7 406.226 430.56 405.266 430.28C404.319 429.987 403.506 429.587 402.826 429.08L403.626 427.06C404.079 427.38 404.552 427.653 405.046 427.88C405.539 428.093 406.066 428.26 406.626 428.38C407.186 428.487 407.779 428.54 408.406 428.54C409.459 428.54 410.219 428.367 410.686 428.02C411.152 427.673 411.386 427.22 411.386 426.66C411.386 426.167 411.226 425.793 410.906 425.54C410.586 425.273 410.012 425.053 409.186 424.88L406.926 424.42C405.632 424.153 404.666 423.707 404.026 423.08C403.386 422.453 403.066 421.613 403.066 420.56C403.066 419.68 403.299 418.913 403.766 418.26C404.232 417.607 404.886 417.1 405.726 416.74C406.566 416.38 407.546 416.2 408.666 416.2C409.666 416.2 410.592 416.347 411.446 416.64C412.299 416.92 413.012 417.327 413.586 417.86L412.786 419.78C412.212 419.3 411.586 418.947 410.906 418.72C410.226 418.48 409.466 418.36 408.626 418.36C407.679 418.36 406.939 418.547 406.406 418.92C405.886 419.28 405.626 419.78 405.626 420.42C405.626 420.913 405.786 421.307 406.106 421.6C406.439 421.893 406.999 422.12 407.786 422.28L410.026 422.72C411.359 422.987 412.346 423.427 412.986 424.04C413.626 424.64 413.946 425.453 413.946 426.48C413.946 427.32 413.719 428.06 413.266 428.7C412.812 429.327 412.172 429.82 411.346 430.18C410.519 430.527 409.539 430.7 408.406 430.7ZM421.056 430.7C419.363 430.7 418.036 430.233 417.076 429.3C416.116 428.367 415.636 427.087 415.636 425.46C415.636 424.407 415.843 423.487 416.256 422.7C416.67 421.913 417.243 421.3 417.976 420.86C418.723 420.42 419.59 420.2 420.576 420.2C421.55 420.2 422.363 420.407 423.016 420.82C423.67 421.233 424.163 421.813 424.496 422.56C424.843 423.307 425.016 424.18 425.016 425.18V425.84H417.656V424.52H423.236L422.896 424.8C422.896 423.867 422.696 423.153 422.296 422.66C421.91 422.167 421.343 421.92 420.596 421.92C419.77 421.92 419.13 422.213 418.676 422.8C418.236 423.387 418.016 424.207 418.016 425.26V425.52C418.016 426.613 418.283 427.433 418.816 427.98C419.363 428.513 420.13 428.78 421.116 428.78C421.69 428.78 422.223 428.707 422.716 428.56C423.223 428.4 423.703 428.147 424.156 427.8L424.896 429.48C424.416 429.867 423.843 430.167 423.176 430.38C422.51 430.593 421.803 430.7 421.056 430.7ZM431.033 430.7C430.153 430.7 429.38 430.493 428.713 430.08C428.047 429.653 427.527 429.047 427.153 428.26C426.78 427.473 426.593 426.533 426.593 425.44C426.593 424.347 426.78 423.413 427.153 422.64C427.527 421.853 428.047 421.253 428.713 420.84C429.38 420.413 430.153 420.2 431.033 420.2C431.887 420.2 432.633 420.413 433.273 420.84C433.927 421.253 434.36 421.813 434.573 422.52H434.353L434.573 420.4H436.973C436.933 420.813 436.893 421.233 436.853 421.66C436.827 422.087 436.813 422.507 436.813 422.92V430.5H434.333L434.313 428.42H434.553C434.34 429.113 433.907 429.667 433.253 430.08C432.6 430.493 431.86 430.7 431.033 430.7ZM431.733 428.78C432.52 428.78 433.153 428.507 433.633 427.96C434.113 427.4 434.353 426.56 434.353 425.44C434.353 424.32 434.113 423.487 433.633 422.94C433.153 422.393 432.52 422.12 431.733 422.12C430.947 422.12 430.313 422.393 429.833 422.94C429.353 423.487 429.113 424.32 429.113 425.44C429.113 426.56 429.347 427.4 429.813 427.96C430.293 428.507 430.933 428.78 431.733 428.78ZM439.516 430.5V422.98C439.516 422.553 439.502 422.12 439.476 421.68C439.462 421.24 439.429 420.813 439.376 420.4H441.796L442.076 423.16H441.676C441.809 422.493 442.029 421.94 442.336 421.5C442.656 421.06 443.042 420.733 443.496 420.52C443.949 420.307 444.442 420.2 444.976 420.2C445.216 420.2 445.409 420.213 445.556 420.24C445.702 420.253 445.849 420.287 445.996 420.34L445.976 422.54C445.722 422.433 445.502 422.367 445.316 422.34C445.142 422.313 444.922 422.3 444.656 422.3C444.082 422.3 443.596 422.42 443.196 422.66C442.809 422.9 442.516 423.233 442.316 423.66C442.129 424.087 442.036 424.573 442.036 425.12V430.5H439.516ZM451.871 430.7C450.831 430.7 449.918 430.487 449.131 430.06C448.358 429.633 447.758 429.027 447.331 428.24C446.904 427.44 446.691 426.493 446.691 425.4C446.691 424.307 446.904 423.373 447.331 422.6C447.771 421.827 448.378 421.233 449.151 420.82C449.924 420.407 450.831 420.2 451.871 420.2C452.538 420.2 453.184 420.307 453.811 420.52C454.451 420.72 454.971 421.013 455.371 421.4L454.611 423.14C454.251 422.807 453.844 422.56 453.391 422.4C452.951 422.227 452.518 422.14 452.091 422.14C451.198 422.14 450.498 422.42 449.991 422.98C449.498 423.54 449.251 424.353 449.251 425.42C449.251 426.487 449.498 427.307 449.991 427.88C450.498 428.453 451.198 428.74 452.091 428.74C452.504 428.74 452.931 428.66 453.371 428.5C453.824 428.34 454.238 428.093 454.611 427.76L455.371 429.48C454.958 429.867 454.431 430.167 453.791 430.38C453.164 430.593 452.524 430.7 451.871 430.7ZM457.309 430.5V415.78H459.809V422.42H459.529C459.836 421.7 460.309 421.153 460.949 420.78C461.589 420.393 462.323 420.2 463.149 420.2C464.349 420.2 465.243 420.54 465.829 421.22C466.416 421.887 466.709 422.907 466.709 424.28V430.5H464.209V424.4C464.209 423.613 464.056 423.047 463.749 422.7C463.456 422.34 462.983 422.16 462.329 422.16C461.569 422.16 460.956 422.4 460.489 422.88C460.036 423.347 459.809 423.973 459.809 424.76V430.5H457.309Z" fill="white"/>
<path d="M106.38 317.18C105.247 317.18 104.227 317.033 103.32 316.74C102.413 316.447 101.627 316.033 100.96 315.5L101.6 314.02C102.067 314.367 102.54 314.66 103.02 314.9C103.5 315.127 104.013 315.3 104.56 315.42C105.12 315.527 105.727 315.58 106.38 315.58C107.54 315.58 108.393 315.373 108.94 314.96C109.5 314.533 109.78 313.973 109.78 313.28C109.78 312.68 109.587 312.22 109.2 311.9C108.813 311.58 108.14 311.327 107.18 311.14L105.04 310.7C103.747 310.433 102.78 310 102.14 309.4C101.513 308.787 101.2 307.96 101.2 306.92C101.2 306.08 101.42 305.347 101.86 304.72C102.313 304.08 102.933 303.587 103.72 303.24C104.52 302.893 105.453 302.72 106.52 302.72C107.507 302.72 108.42 302.867 109.26 303.16C110.1 303.453 110.807 303.887 111.38 304.46L110.74 305.88C110.14 305.333 109.493 304.94 108.8 304.7C108.12 304.447 107.347 304.32 106.48 304.32C105.427 304.32 104.593 304.547 103.98 305C103.367 305.453 103.06 306.067 103.06 306.84C103.06 307.453 103.253 307.94 103.64 308.3C104.027 308.647 104.667 308.913 105.56 309.1L107.7 309.52C109.06 309.787 110.053 310.207 110.68 310.78C111.32 311.353 111.64 312.147 111.64 313.16C111.64 313.96 111.427 314.667 111 315.28C110.573 315.88 109.967 316.347 109.18 316.68C108.393 317.013 107.46 317.18 106.38 317.18ZM114.079 317V302.28H115.899V309.12H115.639C115.932 308.347 116.405 307.76 117.059 307.36C117.712 306.96 118.465 306.76 119.319 306.76C120.532 306.76 121.425 307.087 121.999 307.74C122.585 308.393 122.879 309.38 122.879 310.7V317H121.059V310.8C121.059 309.907 120.885 309.26 120.539 308.86C120.192 308.447 119.625 308.24 118.839 308.24C117.959 308.24 117.245 308.513 116.699 309.06C116.165 309.607 115.899 310.333 115.899 311.24V317H114.079ZM129.696 317.18C128.816 317.18 128.043 316.973 127.376 316.56C126.709 316.147 126.189 315.547 125.816 314.76C125.443 313.973 125.256 313.04 125.256 311.96C125.256 310.88 125.443 309.953 125.816 309.18C126.189 308.393 126.709 307.793 127.376 307.38C128.043 306.967 128.816 306.76 129.696 306.76C130.589 306.76 131.363 306.987 132.016 307.44C132.683 307.88 133.123 308.487 133.336 309.26H133.096L133.316 306.94H135.076C135.036 307.34 134.996 307.74 134.956 308.14C134.929 308.54 134.916 308.933 134.916 309.32V317H133.096V314.7H133.316C133.103 315.46 132.663 316.067 131.996 316.52C131.343 316.96 130.576 317.18 129.696 317.18ZM130.116 315.74C131.023 315.74 131.749 315.42 132.296 314.78C132.843 314.14 133.116 313.2 133.116 311.96C133.116 310.72 132.843 309.787 132.296 309.16C131.749 308.533 131.023 308.22 130.116 308.22C129.209 308.22 128.476 308.533 127.916 309.16C127.369 309.787 127.096 310.72 127.096 311.96C127.096 313.2 127.369 314.14 127.916 314.78C128.463 315.42 129.196 315.74 130.116 315.74ZM137.945 317V309.4C137.945 309 137.932 308.593 137.905 308.18C137.892 307.753 137.859 307.34 137.805 306.94H139.565L139.785 309.46L139.485 309.48C139.619 308.867 139.845 308.36 140.165 307.96C140.499 307.547 140.892 307.247 141.345 307.06C141.812 306.86 142.292 306.76 142.785 306.76C142.999 306.76 143.179 306.767 143.325 306.78C143.472 306.793 143.619 306.827 143.765 306.88L143.725 308.5C143.525 308.42 143.339 308.373 143.165 308.36C143.005 308.333 142.805 308.32 142.565 308.32C141.979 308.32 141.472 308.453 141.045 308.72C140.632 308.987 140.312 309.34 140.085 309.78C139.872 310.22 139.765 310.693 139.765 311.2V317H137.945ZM149.811 317.18C148.211 317.18 146.944 316.72 146.011 315.8C145.091 314.88 144.631 313.613 144.631 312C144.631 310.933 144.831 310.013 145.231 309.24C145.644 308.453 146.211 307.847 146.931 307.42C147.651 306.98 148.491 306.76 149.451 306.76C150.371 306.76 151.151 306.96 151.791 307.36C152.431 307.747 152.918 308.3 153.251 309.02C153.584 309.74 153.751 310.593 153.751 311.58V312.18H146.051V311.1H152.511L152.171 311.36C152.171 310.32 151.938 309.513 151.471 308.94C151.018 308.367 150.344 308.08 149.451 308.08C148.478 308.08 147.724 308.42 147.191 309.1C146.658 309.767 146.391 310.68 146.391 311.84V312.02C146.391 313.247 146.691 314.173 147.291 314.8C147.904 315.427 148.751 315.74 149.831 315.74C150.431 315.74 150.991 315.653 151.511 315.48C152.031 315.307 152.531 315.02 153.011 314.62L153.611 315.88C153.158 316.293 152.591 316.613 151.911 316.84C151.244 317.067 150.544 317.18 149.811 317.18ZM161.063 321.54L160.643 320.06C161.269 319.913 161.789 319.74 162.203 319.54C162.616 319.353 162.963 319.107 163.243 318.8C163.523 318.493 163.769 318.107 163.983 317.64L164.483 316.44L164.443 317.2L160.063 306.94H162.023L165.523 315.56H165.003L168.503 306.94H170.383L165.763 317.78C165.483 318.433 165.176 318.98 164.843 319.42C164.523 319.86 164.169 320.22 163.783 320.5C163.409 320.78 162.996 321 162.543 321.16C162.089 321.32 161.596 321.447 161.063 321.54ZM176.17 317.18C175.183 317.18 174.33 316.973 173.61 316.56C172.89 316.133 172.33 315.533 171.93 314.76C171.53 313.973 171.33 313.04 171.33 311.96C171.33 310.893 171.53 309.973 171.93 309.2C172.33 308.413 172.89 307.813 173.61 307.4C174.33 306.973 175.183 306.76 176.17 306.76C177.157 306.76 178.01 306.973 178.73 307.4C179.463 307.813 180.023 308.413 180.41 309.2C180.81 309.973 181.01 310.893 181.01 311.96C181.01 313.04 180.81 313.973 180.41 314.76C180.023 315.533 179.463 316.133 178.73 316.56C178.01 316.973 177.157 317.18 176.17 317.18ZM176.17 315.74C177.077 315.74 177.803 315.42 178.35 314.78C178.897 314.14 179.17 313.2 179.17 311.96C179.17 310.72 178.897 309.787 178.35 309.16C177.803 308.533 177.077 308.22 176.17 308.22C175.25 308.22 174.517 308.533 173.97 309.16C173.437 309.787 173.17 310.72 173.17 311.96C173.17 313.2 173.437 314.14 173.97 314.78C174.517 315.42 175.25 315.74 176.17 315.74ZM187.034 317.18C185.82 317.18 184.907 316.853 184.294 316.2C183.694 315.547 183.394 314.54 183.394 313.18V306.94H185.214V313.14C185.214 314.02 185.394 314.667 185.754 315.08C186.114 315.493 186.674 315.7 187.434 315.7C188.26 315.7 188.927 315.427 189.434 314.88C189.954 314.32 190.214 313.58 190.214 312.66V306.94H192.034V317H190.274V314.78H190.534C190.254 315.54 189.807 316.133 189.194 316.56C188.58 316.973 187.86 317.18 187.034 317.18ZM195.074 317V309.4C195.074 309 195.061 308.593 195.034 308.18C195.021 307.753 194.988 307.34 194.934 306.94H196.694L196.914 309.46L196.614 309.48C196.748 308.867 196.974 308.36 197.294 307.96C197.628 307.547 198.021 307.247 198.474 307.06C198.941 306.86 199.421 306.76 199.914 306.76C200.128 306.76 200.308 306.767 200.454 306.78C200.601 306.793 200.748 306.827 200.894 306.88L200.854 308.5C200.654 308.42 200.468 308.373 200.294 308.36C200.134 308.333 199.934 308.32 199.694 308.32C199.108 308.32 198.601 308.453 198.174 308.72C197.761 308.987 197.441 309.34 197.214 309.78C197.001 310.22 196.894 310.693 196.894 311.2V317H195.074ZM208.33 317V308.34H206.37V306.94H208.83L208.33 307.4V305.78C208.33 304.607 208.623 303.72 209.21 303.12C209.797 302.507 210.65 302.2 211.77 302.2C212.037 302.2 212.317 302.22 212.61 302.26C212.917 302.3 213.17 302.367 213.37 302.46V303.94C213.21 303.873 213.01 303.82 212.77 303.78C212.53 303.74 212.297 303.72 212.07 303.72C211.67 303.72 211.323 303.8 211.03 303.96C210.737 304.12 210.517 304.36 210.37 304.68C210.223 304.987 210.15 305.393 210.15 305.9V307.32L209.87 306.94H212.93V308.34H210.15V317H208.33ZM218.407 317.18C217.527 317.18 216.754 316.973 216.087 316.56C215.42 316.147 214.9 315.547 214.527 314.76C214.154 313.973 213.967 313.04 213.967 311.96C213.967 310.88 214.154 309.953 214.527 309.18C214.9 308.393 215.42 307.793 216.087 307.38C216.754 306.967 217.527 306.76 218.407 306.76C219.3 306.76 220.074 306.987 220.727 307.44C221.394 307.88 221.834 308.487 222.047 309.26H221.807L222.027 306.94H223.787C223.747 307.34 223.707 307.74 223.667 308.14C223.64 308.54 223.627 308.933 223.627 309.32V317H221.807V314.7H222.027C221.814 315.46 221.374 316.067 220.707 316.52C220.054 316.96 219.287 317.18 218.407 317.18ZM218.827 315.74C219.734 315.74 220.46 315.42 221.007 314.78C221.554 314.14 221.827 313.2 221.827 311.96C221.827 310.72 221.554 309.787 221.007 309.16C220.46 308.533 219.734 308.22 218.827 308.22C217.92 308.22 217.187 308.533 216.627 309.16C216.08 309.787 215.807 310.72 215.807 311.96C215.807 313.2 216.08 314.14 216.627 314.78C217.174 315.42 217.907 315.74 218.827 315.74ZM229.539 317L225.239 306.94H227.199L230.699 315.58H230.139L233.699 306.94H235.559L231.239 317H229.539ZM241.346 317.18C240.359 317.18 239.506 316.973 238.786 316.56C238.066 316.133 237.506 315.533 237.106 314.76C236.706 313.973 236.506 313.04 236.506 311.96C236.506 310.893 236.706 309.973 237.106 309.2C237.506 308.413 238.066 307.813 238.786 307.4C239.506 306.973 240.359 306.76 241.346 306.76C242.333 306.76 243.186 306.973 243.906 307.4C244.639 307.813 245.199 308.413 245.586 309.2C245.986 309.973 246.186 310.893 246.186 311.96C246.186 313.04 245.986 313.973 245.586 314.76C245.199 315.533 244.639 316.133 243.906 316.56C243.186 316.973 242.333 317.18 241.346 317.18ZM241.346 315.74C242.253 315.74 242.979 315.42 243.526 314.78C244.073 314.14 244.346 313.2 244.346 311.96C244.346 310.72 244.073 309.787 243.526 309.16C242.979 308.533 242.253 308.22 241.346 308.22C240.426 308.22 239.693 308.533 239.146 309.16C238.613 309.787 238.346 310.72 238.346 311.96C238.346 313.2 238.613 314.14 239.146 314.78C239.693 315.42 240.426 315.74 241.346 315.74ZM248.609 317V309.4C248.609 309 248.596 308.593 248.569 308.18C248.556 307.753 248.523 307.34 248.469 306.94H250.229L250.449 309.46L250.149 309.48C250.283 308.867 250.509 308.36 250.829 307.96C251.163 307.547 251.556 307.247 252.009 307.06C252.476 306.86 252.956 306.76 253.449 306.76C253.663 306.76 253.843 306.767 253.989 306.78C254.136 306.793 254.283 306.827 254.429 306.88L254.389 308.5C254.189 308.42 254.003 308.373 253.829 308.36C253.669 308.333 253.469 308.32 253.229 308.32C252.643 308.32 252.136 308.453 251.709 308.72C251.296 308.987 250.976 309.34 250.749 309.78C250.536 310.22 250.429 310.693 250.429 311.2V317H248.609ZM256.032 317V306.94H257.852V317H256.032ZM255.872 304.74V302.78H258.032V304.74H255.872ZM264.655 317.18C263.602 317.18 262.802 316.893 262.255 316.32C261.722 315.733 261.455 314.853 261.455 313.68V308.34H259.495V306.94H261.455V304.24L263.275 303.74V306.94H266.115V308.34H263.275V313.52C263.275 314.293 263.408 314.847 263.675 315.18C263.955 315.5 264.355 315.66 264.875 315.66C265.142 315.66 265.368 315.64 265.555 315.6C265.755 315.547 265.935 315.487 266.095 315.42V316.92C265.895 317 265.662 317.06 265.395 317.1C265.142 317.153 264.895 317.18 264.655 317.18ZM272.506 317.18C270.906 317.18 269.64 316.72 268.706 315.8C267.786 314.88 267.326 313.613 267.326 312C267.326 310.933 267.526 310.013 267.926 309.24C268.34 308.453 268.906 307.847 269.626 307.42C270.346 306.98 271.186 306.76 272.146 306.76C273.066 306.76 273.846 306.96 274.486 307.36C275.126 307.747 275.613 308.3 275.946 309.02C276.28 309.74 276.446 310.593 276.446 311.58V312.18H268.746V311.1H275.206L274.866 311.36C274.866 310.32 274.633 309.513 274.166 308.94C273.713 308.367 273.04 308.08 272.146 308.08C271.173 308.08 270.42 308.42 269.886 309.1C269.353 309.767 269.086 310.68 269.086 311.84V312.02C269.086 313.247 269.386 314.173 269.986 314.8C270.6 315.427 271.446 315.74 272.526 315.74C273.126 315.74 273.686 315.653 274.206 315.48C274.726 315.307 275.226 315.02 275.706 314.62L276.306 315.88C275.853 316.293 275.286 316.613 274.606 316.84C273.94 317.067 273.24 317.18 272.506 317.18ZM288.338 317.18C287.351 317.18 286.498 316.973 285.778 316.56C285.058 316.133 284.498 315.533 284.098 314.76C283.698 313.973 283.498 313.04 283.498 311.96C283.498 310.893 283.698 309.973 284.098 309.2C284.498 308.413 285.058 307.813 285.778 307.4C286.498 306.973 287.351 306.76 288.338 306.76C289.325 306.76 290.178 306.973 290.898 307.4C291.631 307.813 292.191 308.413 292.578 309.2C292.978 309.973 293.178 310.893 293.178 311.96C293.178 313.04 292.978 313.973 292.578 314.76C292.191 315.533 291.631 316.133 290.898 316.56C290.178 316.973 289.325 317.18 288.338 317.18ZM288.338 315.74C289.245 315.74 289.971 315.42 290.518 314.78C291.065 314.14 291.338 313.2 291.338 311.96C291.338 310.72 291.065 309.787 290.518 309.16C289.971 308.533 289.245 308.22 288.338 308.22C287.418 308.22 286.685 308.533 286.138 309.16C285.605 309.787 285.338 310.72 285.338 311.96C285.338 313.2 285.605 314.14 286.138 314.78C286.685 315.42 287.418 315.74 288.338 315.74ZM295.622 321.32V309.32C295.622 308.933 295.608 308.54 295.582 308.14C295.555 307.74 295.515 307.34 295.462 306.94H297.222L297.442 309.26H297.222C297.422 308.487 297.848 307.88 298.502 307.44C299.155 306.987 299.935 306.76 300.842 306.76C301.735 306.76 302.515 306.967 303.182 307.38C303.848 307.793 304.362 308.393 304.722 309.18C305.095 309.953 305.282 310.88 305.282 311.96C305.282 313.04 305.095 313.973 304.722 314.76C304.362 315.547 303.848 316.147 303.182 316.56C302.515 316.973 301.735 317.18 300.842 317.18C299.948 317.18 299.175 316.96 298.522 316.52C297.882 316.067 297.448 315.46 297.222 314.7H297.442V321.32H295.622ZM300.422 315.74C301.342 315.74 302.075 315.42 302.622 314.78C303.168 314.14 303.442 313.2 303.442 311.96C303.442 310.72 303.168 309.787 302.622 309.16C302.075 308.533 301.342 308.22 300.422 308.22C299.502 308.22 298.768 308.533 298.222 309.16C297.688 309.787 297.422 310.72 297.422 311.96C297.422 313.2 297.688 314.14 298.222 314.78C298.768 315.42 299.502 315.74 300.422 315.74ZM307.731 317V306.94H309.551V317H307.731ZM307.571 304.74V302.78H309.731V304.74H307.571ZM312.594 317V309.32C312.594 308.933 312.581 308.54 312.554 308.14C312.528 307.74 312.488 307.34 312.434 306.94H314.194L314.394 309.1H314.154C314.461 308.34 314.934 307.76 315.574 307.36C316.214 306.96 316.961 306.76 317.814 306.76C319.001 306.76 319.894 307.087 320.494 307.74C321.094 308.38 321.394 309.38 321.394 310.74V317H319.574V310.84C319.574 309.92 319.394 309.26 319.034 308.86C318.674 308.447 318.114 308.24 317.354 308.24C316.448 308.24 315.728 308.513 315.194 309.06C314.674 309.607 314.414 310.347 314.414 311.28V317H312.594ZM324.372 317V306.94H326.192V317H324.372ZM324.212 304.74V302.78H326.372V304.74H324.212ZM333.475 317.18C332.488 317.18 331.635 316.973 330.915 316.56C330.195 316.133 329.635 315.533 329.235 314.76C328.835 313.973 328.635 313.04 328.635 311.96C328.635 310.893 328.835 309.973 329.235 309.2C329.635 308.413 330.195 307.813 330.915 307.4C331.635 306.973 332.488 306.76 333.475 306.76C334.462 306.76 335.315 306.973 336.035 307.4C336.768 307.813 337.328 308.413 337.715 309.2C338.115 309.973 338.315 310.893 338.315 311.96C338.315 313.04 338.115 313.973 337.715 314.76C337.328 315.533 336.768 316.133 336.035 316.56C335.315 316.973 334.462 317.18 333.475 317.18ZM333.475 315.74C334.382 315.74 335.108 315.42 335.655 314.78C336.202 314.14 336.475 313.2 336.475 311.96C336.475 310.72 336.202 309.787 335.655 309.16C335.108 308.533 334.382 308.22 333.475 308.22C332.555 308.22 331.822 308.533 331.275 309.16C330.742 309.787 330.475 310.72 330.475 311.96C330.475 313.2 330.742 314.14 331.275 314.78C331.822 315.42 332.555 315.74 333.475 315.74ZM340.758 317V309.32C340.758 308.933 340.745 308.54 340.718 308.14C340.692 307.74 340.652 307.34 340.598 306.94H342.358L342.558 309.1H342.318C342.625 308.34 343.098 307.76 343.738 307.36C344.378 306.96 345.125 306.76 345.978 306.76C347.165 306.76 348.058 307.087 348.658 307.74C349.258 308.38 349.558 309.38 349.558 310.74V317H347.738V310.84C347.738 309.92 347.558 309.26 347.198 308.86C346.838 308.447 346.278 308.24 345.518 308.24C344.612 308.24 343.892 308.513 343.358 309.06C342.838 309.607 342.578 310.347 342.578 311.28V317H340.758ZM361.649 317.18C360.769 317.18 359.996 316.973 359.329 316.56C358.662 316.147 358.142 315.547 357.769 314.76C357.396 313.973 357.209 313.04 357.209 311.96C357.209 310.88 357.396 309.953 357.769 309.18C358.142 308.393 358.662 307.793 359.329 307.38C359.996 306.967 360.769 306.76 361.649 306.76C362.542 306.76 363.316 306.987 363.969 307.44C364.636 307.88 365.076 308.487 365.289 309.26H365.049L365.269 306.94H367.029C366.989 307.34 366.949 307.74 366.909 308.14C366.882 308.54 366.869 308.933 366.869 309.32V317H365.049V314.7H365.269C365.056 315.46 364.616 316.067 363.949 316.52C363.296 316.96 362.529 317.18 361.649 317.18ZM362.069 315.74C362.976 315.74 363.702 315.42 364.249 314.78C364.796 314.14 365.069 313.2 365.069 311.96C365.069 310.72 364.796 309.787 364.249 309.16C363.702 308.533 362.976 308.22 362.069 308.22C361.162 308.22 360.429 308.533 359.869 309.16C359.322 309.787 359.049 310.72 359.049 311.96C359.049 313.2 359.322 314.14 359.869 314.78C360.416 315.42 361.149 315.74 362.069 315.74ZM369.918 317V309.32C369.918 308.933 369.905 308.54 369.878 308.14C369.852 307.74 369.812 307.34 369.758 306.94H371.518L371.718 309.1H371.478C371.785 308.34 372.258 307.76 372.898 307.36C373.538 306.96 374.285 306.76 375.138 306.76C376.325 306.76 377.218 307.087 377.818 307.74C378.418 308.38 378.718 309.38 378.718 310.74V317H376.898V310.84C376.898 309.92 376.718 309.26 376.358 308.86C375.998 308.447 375.438 308.24 374.678 308.24C373.772 308.24 373.052 308.513 372.518 309.06C371.998 309.607 371.738 310.347 371.738 311.28V317H369.918ZM385.536 317.18C384.656 317.18 383.882 316.973 383.216 316.56C382.549 316.147 382.029 315.547 381.656 314.76C381.282 313.973 381.096 313.04 381.096 311.96C381.096 310.88 381.282 309.953 381.656 309.18C382.029 308.393 382.549 307.793 383.216 307.38C383.882 306.967 384.656 306.76 385.536 306.76C386.416 306.76 387.182 306.98 387.836 307.42C388.502 307.86 388.949 308.467 389.176 309.24H388.936V302.28H390.756V317H388.956V314.66H389.176C388.962 315.447 388.522 316.067 387.856 316.52C387.202 316.96 386.429 317.18 385.536 317.18ZM385.956 315.74C386.862 315.74 387.589 315.42 388.136 314.78C388.696 314.14 388.976 313.2 388.976 311.96C388.976 310.72 388.696 309.787 388.136 309.16C387.589 308.533 386.862 308.22 385.956 308.22C385.049 308.22 384.316 308.533 383.756 309.16C383.209 309.787 382.936 310.72 382.936 311.96C382.936 313.2 383.209 314.14 383.756 314.78C384.316 315.42 385.049 315.74 385.956 315.74ZM401.799 317L398.039 306.94H399.939L402.979 315.56H402.459L405.579 306.94H407.059L410.159 315.56H409.659L412.719 306.94H414.539L410.759 317H409.039L405.839 308.24H406.719L403.539 317H401.799ZM416.52 317V306.94H418.34V317H416.52ZM416.36 304.74V302.78H418.52V304.74H416.36ZM421.383 317V309.32C421.383 308.933 421.37 308.54 421.343 308.14C421.317 307.74 421.277 307.34 421.223 306.94H422.983L423.183 309.1H422.943C423.25 308.34 423.723 307.76 424.363 307.36C425.003 306.96 425.75 306.76 426.603 306.76C427.79 306.76 428.683 307.087 429.283 307.74C429.883 308.38 430.183 309.38 430.183 310.74V317H428.363V310.84C428.363 309.92 428.183 309.26 427.823 308.86C427.463 308.447 426.903 308.24 426.143 308.24C425.237 308.24 424.517 308.513 423.983 309.06C423.463 309.607 423.203 310.347 423.203 311.28V317H421.383ZM442.274 317.18C441.394 317.18 440.621 316.973 439.954 316.56C439.287 316.147 438.767 315.547 438.394 314.76C438.021 313.973 437.834 313.04 437.834 311.96C437.834 310.88 438.021 309.953 438.394 309.18C438.767 308.393 439.287 307.793 439.954 307.38C440.621 306.967 441.394 306.76 442.274 306.76C443.167 306.76 443.941 306.987 444.594 307.44C445.261 307.88 445.701 308.487 445.914 309.26H445.674L445.894 306.94H447.654C447.614 307.34 447.574 307.74 447.534 308.14C447.507 308.54 447.494 308.933 447.494 309.32V317H445.674V314.7H445.894C445.681 315.46 445.241 316.067 444.574 316.52C443.921 316.96 443.154 317.18 442.274 317.18ZM442.694 315.74C443.601 315.74 444.327 315.42 444.874 314.78C445.421 314.14 445.694 313.2 445.694 311.96C445.694 310.72 445.421 309.787 444.874 309.16C444.327 308.533 443.601 308.22 442.694 308.22C441.787 308.22 441.054 308.533 440.494 309.16C439.947 309.787 439.674 310.72 439.674 311.96C439.674 313.2 439.947 314.14 440.494 314.78C441.041 315.42 441.774 315.74 442.694 315.74ZM450.543 317V309.32C450.543 308.933 450.53 308.54 450.503 308.14C450.477 307.74 450.437 307.34 450.383 306.94H452.143L452.343 309.1H452.103C452.41 308.34 452.883 307.76 453.523 307.36C454.163 306.96 454.91 306.76 455.763 306.76C456.95 306.76 457.843 307.087 458.443 307.74C459.043 308.38 459.343 309.38 459.343 310.74V317H457.523V310.84C457.523 309.92 457.343 309.26 456.983 308.86C456.623 308.447 456.063 308.24 455.303 308.24C454.397 308.24 453.677 308.513 453.143 309.06C452.623 309.607 452.363 310.347 452.363 311.28V317H450.543ZM466.161 317.18C465.281 317.18 464.507 316.973 463.841 316.56C463.174 316.147 462.654 315.547 462.281 314.76C461.907 313.973 461.721 313.04 461.721 311.96C461.721 310.88 461.907 309.953 462.281 309.18C462.654 308.393 463.174 307.793 463.841 307.38C464.507 306.967 465.281 306.76 466.161 306.76C467.041 306.76 467.807 306.98 468.461 307.42C469.127 307.86 469.574 308.467 469.801 309.24H469.561V302.28H471.381V317H469.581V314.66H469.801C469.587 315.447 469.147 316.067 468.481 316.52C467.827 316.96 467.054 317.18 466.161 317.18ZM466.581 315.74C467.487 315.74 468.214 315.42 468.761 314.78C469.321 314.14 469.601 313.2 469.601 311.96C469.601 310.72 469.321 309.787 468.761 309.16C468.214 308.533 467.487 308.22 466.581 308.22C465.674 308.22 464.941 308.533 464.381 309.16C463.834 309.787 463.561 310.72 463.561 311.96C463.561 313.2 463.834 314.14 464.381 314.78C464.941 315.42 465.674 315.74 466.581 315.74ZM482.424 317L478.664 306.94H480.564L483.604 315.56H483.084L486.204 306.94H487.684L490.784 315.56H490.284L493.344 306.94H495.164L491.384 317H489.664L486.464 308.24H487.344L484.164 317H482.424ZM497.145 321.32V309.32C497.145 308.933 497.132 308.54 497.105 308.14C497.078 307.74 497.038 307.34 496.985 306.94H498.745L498.965 309.26H498.745C498.945 308.487 499.372 307.88 500.025 307.44C500.678 306.987 501.458 306.76 502.365 306.76C503.258 306.76 504.038 306.967 504.705 307.38C505.372 307.793 505.885 308.393 506.245 309.18C506.618 309.953 506.805 310.88 506.805 311.96C506.805 313.04 506.618 313.973 506.245 314.76C505.885 315.547 505.372 316.147 504.705 316.56C504.038 316.973 503.258 317.18 502.365 317.18C501.472 317.18 500.698 316.96 500.045 316.52C499.405 316.067 498.972 315.46 498.745 314.7H498.965V321.32H497.145ZM501.945 315.74C502.865 315.74 503.598 315.42 504.145 314.78C504.692 314.14 504.965 313.2 504.965 311.96C504.965 310.72 504.692 309.787 504.145 309.16C503.598 308.533 502.865 308.22 501.945 308.22C501.025 308.22 500.292 308.533 499.745 309.16C499.212 309.787 498.945 310.72 498.945 311.96C498.945 313.2 499.212 314.14 499.745 314.78C500.292 315.42 501.025 315.74 501.945 315.74ZM102.08 353V344.34H100.12V342.94H102.58L102.08 343.4V341.78C102.08 340.607 102.373 339.72 102.96 339.12C103.547 338.507 104.4 338.2 105.52 338.2C105.787 338.2 106.067 338.22 106.36 338.26C106.667 338.3 106.92 338.367 107.12 338.46V339.94C106.96 339.873 106.76 339.82 106.52 339.78C106.28 339.74 106.047 339.72 105.82 339.72C105.42 339.72 105.073 339.8 104.78 339.96C104.487 340.12 104.267 340.36 104.12 340.68C103.973 340.987 103.9 341.393 103.9 341.9V343.32L103.62 342.94H106.68V344.34H103.9V353H102.08ZM112.381 353.18C111.394 353.18 110.541 352.973 109.821 352.56C109.101 352.133 108.541 351.533 108.141 350.76C107.741 349.973 107.541 349.04 107.541 347.96C107.541 346.893 107.741 345.973 108.141 345.2C108.541 344.413 109.101 343.813 109.821 343.4C110.541 342.973 111.394 342.76 112.381 342.76C113.368 342.76 114.221 342.973 114.941 343.4C115.674 343.813 116.234 344.413 116.621 345.2C117.021 345.973 117.221 346.893 117.221 347.96C117.221 349.04 117.021 349.973 116.621 350.76C116.234 351.533 115.674 352.133 114.941 352.56C114.221 352.973 113.368 353.18 112.381 353.18ZM112.381 351.74C113.288 351.74 114.014 351.42 114.561 350.78C115.108 350.14 115.381 349.2 115.381 347.96C115.381 346.72 115.108 345.787 114.561 345.16C114.014 344.533 113.288 344.22 112.381 344.22C111.461 344.22 110.728 344.533 110.181 345.16C109.648 345.787 109.381 346.72 109.381 347.96C109.381 349.2 109.648 350.14 110.181 350.78C110.728 351.42 111.461 351.74 112.381 351.74ZM119.645 353V345.4C119.645 345 119.631 344.593 119.605 344.18C119.591 343.753 119.558 343.34 119.505 342.94H121.265L121.485 345.46L121.185 345.48C121.318 344.867 121.545 344.36 121.865 343.96C122.198 343.547 122.591 343.247 123.045 343.06C123.511 342.86 123.991 342.76 124.485 342.76C124.698 342.76 124.878 342.767 125.025 342.78C125.171 342.793 125.318 342.827 125.465 342.88L125.425 344.5C125.225 344.42 125.038 344.373 124.865 344.36C124.705 344.333 124.505 344.32 124.265 344.32C123.678 344.32 123.171 344.453 122.745 344.72C122.331 344.987 122.011 345.34 121.785 345.78C121.571 346.22 121.465 346.693 121.465 347.2V353H119.645ZM130.647 353.18C129.434 353.18 128.52 352.853 127.907 352.2C127.307 351.547 127.007 350.54 127.007 349.18V342.94H128.827V349.14C128.827 350.02 129.007 350.667 129.367 351.08C129.727 351.493 130.287 351.7 131.047 351.7C131.874 351.7 132.54 351.427 133.047 350.88C133.567 350.32 133.827 349.58 133.827 348.66V342.94H135.647V353H133.887V350.78H134.147C133.867 351.54 133.42 352.133 132.807 352.56C132.194 352.973 131.474 353.18 130.647 353.18ZM138.708 353V345.32C138.708 344.933 138.694 344.54 138.668 344.14C138.641 343.74 138.601 343.34 138.548 342.94H140.308L140.508 345.1H140.268C140.534 344.353 140.961 343.78 141.548 343.38C142.134 342.967 142.834 342.76 143.648 342.76C144.474 342.76 145.154 342.96 145.688 343.36C146.221 343.747 146.581 344.36 146.768 345.2H146.468C146.721 344.453 147.168 343.86 147.808 343.42C148.448 342.98 149.194 342.76 150.048 342.76C151.154 342.76 151.988 343.087 152.548 343.74C153.108 344.38 153.388 345.38 153.388 346.74V353H151.568V346.84C151.568 345.92 151.408 345.26 151.088 344.86C150.768 344.447 150.261 344.24 149.568 344.24C148.754 344.24 148.114 344.52 147.648 345.08C147.181 345.627 146.948 346.373 146.948 347.32V353H145.128V346.84C145.128 345.92 144.968 345.26 144.648 344.86C144.341 344.447 143.834 344.24 143.128 344.24C142.314 344.24 141.674 344.52 141.208 345.08C140.754 345.627 140.528 346.373 140.528 347.32V353H138.708ZM165.957 353.18C164.957 353.18 164.091 352.973 163.357 352.56C162.624 352.133 162.051 351.527 161.637 350.74C161.237 349.94 161.037 348.993 161.037 347.9C161.037 346.82 161.244 345.9 161.657 345.14C162.071 344.367 162.644 343.78 163.377 343.38C164.111 342.967 164.971 342.76 165.957 342.76C166.611 342.76 167.244 342.873 167.857 343.1C168.471 343.313 168.971 343.627 169.357 344.04L168.737 345.32C168.351 344.947 167.924 344.673 167.457 344.5C166.991 344.313 166.531 344.22 166.077 344.22C165.091 344.22 164.317 344.54 163.757 345.18C163.197 345.807 162.917 346.72 162.917 347.92C162.917 349.133 163.197 350.067 163.757 350.72C164.317 351.373 165.091 351.7 166.077 351.7C166.517 351.7 166.971 351.613 167.437 351.44C167.904 351.267 168.337 350.993 168.737 350.62L169.357 351.88C168.957 352.307 168.444 352.633 167.817 352.86C167.204 353.073 166.584 353.18 165.957 353.18ZM175.623 353.18C174.637 353.18 173.783 352.973 173.063 352.56C172.343 352.133 171.783 351.533 171.383 350.76C170.983 349.973 170.783 349.04 170.783 347.96C170.783 346.893 170.983 345.973 171.383 345.2C171.783 344.413 172.343 343.813 173.063 343.4C173.783 342.973 174.637 342.76 175.623 342.76C176.61 342.76 177.463 342.973 178.183 343.4C178.917 343.813 179.477 344.413 179.863 345.2C180.263 345.973 180.463 346.893 180.463 347.96C180.463 349.04 180.263 349.973 179.863 350.76C179.477 351.533 178.917 352.133 178.183 352.56C177.463 352.973 176.61 353.18 175.623 353.18ZM175.623 351.74C176.53 351.74 177.257 351.42 177.803 350.78C178.35 350.14 178.623 349.2 178.623 347.96C178.623 346.72 178.35 345.787 177.803 345.16C177.257 344.533 176.53 344.22 175.623 344.22C174.703 344.22 173.97 344.533 173.423 345.16C172.89 345.787 172.623 346.72 172.623 347.96C172.623 349.2 172.89 350.14 173.423 350.78C173.97 351.42 174.703 351.74 175.623 351.74ZM183.369 353V344.34H181.409V342.94H183.869L183.369 343.4V341.78C183.369 340.607 183.662 339.72 184.249 339.12C184.836 338.507 185.689 338.2 186.809 338.2C187.076 338.2 187.356 338.22 187.649 338.26C187.956 338.3 188.209 338.367 188.409 338.46V339.94C188.249 339.873 188.049 339.82 187.809 339.78C187.569 339.74 187.336 339.72 187.109 339.72C186.709 339.72 186.362 339.8 186.069 339.96C185.776 340.12 185.556 340.36 185.409 340.68C185.262 340.987 185.189 341.393 185.189 341.9V343.32L184.909 342.94H187.969V344.34H185.189V353H183.369ZM189.912 353V344.34H187.952V342.94H190.412L189.912 343.4V341.78C189.912 340.607 190.205 339.72 190.792 339.12C191.379 338.507 192.232 338.2 193.352 338.2C193.619 338.2 193.899 338.22 194.192 338.26C194.499 338.3 194.752 338.367 194.952 338.46V339.94C194.792 339.873 194.592 339.82 194.352 339.78C194.112 339.74 193.879 339.72 193.652 339.72C193.252 339.72 192.905 339.8 192.612 339.96C192.319 340.12 192.099 340.36 191.952 340.68C191.805 340.987 191.732 341.393 191.732 341.9V343.32L191.452 342.94H194.512V344.34H191.732V353H189.912ZM200.553 353.18C198.953 353.18 197.686 352.72 196.753 351.8C195.833 350.88 195.373 349.613 195.373 348C195.373 346.933 195.573 346.013 195.973 345.24C196.386 344.453 196.953 343.847 197.673 343.42C198.393 342.98 199.233 342.76 200.193 342.76C201.113 342.76 201.893 342.96 202.533 343.36C203.173 343.747 203.66 344.3 203.993 345.02C204.326 345.74 204.493 346.593 204.493 347.58V348.18H196.793V347.1H203.253L202.913 347.36C202.913 346.32 202.68 345.513 202.213 344.94C201.76 344.367 201.086 344.08 200.193 344.08C199.22 344.08 198.466 344.42 197.933 345.1C197.4 345.767 197.133 346.68 197.133 347.84V348.02C197.133 349.247 197.433 350.173 198.033 350.8C198.646 351.427 199.493 351.74 200.573 351.74C201.173 351.74 201.733 351.653 202.253 351.48C202.773 351.307 203.273 351.02 203.753 350.62L204.353 351.88C203.9 352.293 203.333 352.613 202.653 352.84C201.986 353.067 201.286 353.18 200.553 353.18ZM211.452 353.18C209.852 353.18 208.585 352.72 207.652 351.8C206.732 350.88 206.272 349.613 206.272 348C206.272 346.933 206.472 346.013 206.872 345.24C207.285 344.453 207.852 343.847 208.572 343.42C209.292 342.98 210.132 342.76 211.092 342.76C212.012 342.76 212.792 342.96 213.432 343.36C214.072 343.747 214.558 344.3 214.892 345.02C215.225 345.74 215.392 346.593 215.392 347.58V348.18H207.692V347.1H214.152L213.812 347.36C213.812 346.32 213.578 345.513 213.112 344.94C212.658 344.367 211.985 344.08 211.092 344.08C210.118 344.08 209.365 344.42 208.832 345.1C208.298 345.767 208.032 346.68 208.032 347.84V348.02C208.032 349.247 208.332 350.173 208.932 350.8C209.545 351.427 210.392 351.74 211.472 351.74C212.072 351.74 212.632 351.653 213.152 351.48C213.672 351.307 214.172 351.02 214.652 350.62L215.252 351.88C214.798 352.293 214.232 352.613 213.552 352.84C212.885 353.067 212.185 353.18 211.452 353.18ZM223.043 353V345.32C223.043 344.933 223.03 344.54 223.003 344.14C222.977 343.74 222.937 343.34 222.883 342.94H224.643L224.843 345.1H224.603C224.87 344.353 225.297 343.78 225.883 343.38C226.47 342.967 227.17 342.76 227.983 342.76C228.81 342.76 229.49 342.96 230.023 343.36C230.557 343.747 230.917 344.36 231.103 345.2H230.803C231.057 344.453 231.503 343.86 232.143 343.42C232.783 342.98 233.53 342.76 234.383 342.76C235.49 342.76 236.323 343.087 236.883 343.74C237.443 344.38 237.723 345.38 237.723 346.74V353H235.903V346.84C235.903 345.92 235.743 345.26 235.423 344.86C235.103 344.447 234.597 344.24 233.903 344.24C233.09 344.24 232.45 344.52 231.983 345.08C231.517 345.627 231.283 346.373 231.283 347.32V353H229.463V346.84C229.463 345.92 229.303 345.26 228.983 344.86C228.677 344.447 228.17 344.24 227.463 344.24C226.65 344.24 226.01 344.52 225.543 345.08C225.09 345.627 224.863 346.373 224.863 347.32V353H223.043ZM244.28 353.18C243.066 353.18 242.153 352.853 241.54 352.2C240.94 351.547 240.64 350.54 240.64 349.18V342.94H242.46V349.14C242.46 350.02 242.64 350.667 243 351.08C243.36 351.493 243.92 351.7 244.68 351.7C245.506 351.7 246.173 351.427 246.68 350.88C247.2 350.32 247.46 349.58 247.46 348.66V342.94H249.28V353H247.52V350.78H247.78C247.5 351.54 247.053 352.133 246.44 352.56C245.826 352.973 245.106 353.18 244.28 353.18ZM256.82 357.48C255.94 357.48 255.134 357.373 254.4 357.16C253.667 356.947 253.007 356.62 252.42 356.18L252.9 354.84C253.314 355.12 253.72 355.347 254.12 355.52C254.52 355.693 254.934 355.82 255.36 355.9C255.8 355.98 256.254 356.02 256.72 356.02C257.707 356.02 258.447 355.767 258.94 355.26C259.434 354.753 259.68 354.033 259.68 353.1V350.28H259.88C259.667 351.04 259.227 351.647 258.56 352.1C257.907 352.54 257.134 352.76 256.24 352.76C255.334 352.76 254.54 352.56 253.86 352.16C253.194 351.747 252.674 351.167 252.3 350.42C251.927 349.66 251.74 348.773 251.74 347.76C251.74 346.733 251.927 345.847 252.3 345.1C252.674 344.353 253.194 343.78 253.86 343.38C254.54 342.967 255.334 342.76 256.24 342.76C257.134 342.76 257.907 342.98 258.56 343.42C259.214 343.86 259.647 344.467 259.86 345.24L259.68 345.06L259.86 342.94H261.62C261.58 343.34 261.54 343.74 261.5 344.14C261.474 344.54 261.46 344.933 261.46 345.32V352.88C261.46 354.373 261.067 355.513 260.28 356.3C259.507 357.087 258.354 357.48 256.82 357.48ZM256.64 351.32C257.56 351.32 258.294 351.007 258.84 350.38C259.387 349.753 259.66 348.88 259.66 347.76C259.66 346.627 259.387 345.753 258.84 345.14C258.294 344.527 257.56 344.22 256.64 344.22C255.707 344.22 254.96 344.527 254.4 345.14C253.854 345.753 253.58 346.627 253.58 347.76C253.58 348.88 253.854 349.753 254.4 350.38C254.96 351.007 255.707 351.32 256.64 351.32ZM264.748 349.2L264.188 338.9H266.448L265.868 349.2H264.748ZM264.208 353V350.78H266.428V353H264.208Z" fill="white" fill-opacity="0.8"/>
<path d="M117.024 166L100.896 120.88H113.056L123.616 153.52H120.672L132.448 120.88H140.896L151.52 153.52H148.704L160.096 120.88H171.488L155.296 166H145.824L135.584 136.624H137.056L126.56 166H117.024ZM188.735 166.704C182.847 166.704 178.26 165.189 174.975 162.16C171.732 159.131 170.111 154.971 170.111 149.68C170.111 146.395 170.793 143.472 172.159 140.912C173.524 138.352 175.444 136.368 177.919 134.96C180.393 133.509 183.295 132.784 186.623 132.784C189.908 132.784 192.639 133.509 194.815 134.96C197.033 136.368 198.697 138.331 199.807 140.848C200.916 143.323 201.471 146.203 201.471 149.488V151.92H179.647V146.544H193.087L191.999 147.44C191.999 145.008 191.529 143.216 190.591 142.064C189.695 140.869 188.415 140.272 186.751 140.272C184.831 140.272 183.359 140.997 182.335 142.448C181.353 143.856 180.863 145.989 180.863 148.848V150C180.863 152.859 181.567 154.949 182.975 156.272C184.383 157.595 186.409 158.256 189.055 158.256C190.761 158.256 192.361 158.064 193.855 157.68C195.391 157.296 196.841 156.677 198.207 155.824L201.151 163.248C199.529 164.357 197.652 165.211 195.519 165.808C193.385 166.405 191.124 166.704 188.735 166.704ZM206.895 166V118.896H218.287V166H206.895ZM241.781 166.704C238.197 166.704 235.061 166.021 232.373 164.656C229.685 163.291 227.594 161.349 226.101 158.832C224.607 156.272 223.861 153.221 223.861 149.68C223.861 146.139 224.607 143.109 226.101 140.592C227.594 138.075 229.685 136.155 232.373 134.832C235.061 133.467 238.197 132.784 241.781 132.784C243.999 132.784 246.175 133.083 248.309 133.68C250.442 134.277 252.17 135.131 253.493 136.24L250.293 143.984C249.269 143.131 248.095 142.491 246.773 142.064C245.493 141.595 244.234 141.36 242.997 141.36C240.65 141.36 238.815 142.064 237.493 143.472C236.213 144.88 235.573 146.949 235.573 149.68C235.573 152.411 236.213 154.501 237.493 155.952C238.815 157.36 240.65 158.064 242.997 158.064C244.191 158.064 245.45 157.851 246.773 157.424C248.095 156.955 249.269 156.315 250.293 155.504L253.493 163.248C252.127 164.315 250.378 165.168 248.245 165.808C246.154 166.405 243.999 166.704 241.781 166.704ZM273.839 166.704C270.212 166.704 267.076 166.021 264.431 164.656C261.785 163.291 259.737 161.349 258.286 158.832C256.836 156.272 256.111 153.243 256.111 149.744C256.111 146.203 256.836 143.173 258.286 140.656C259.737 138.139 261.785 136.197 264.431 134.832C267.076 133.467 270.212 132.784 273.839 132.784C277.423 132.784 280.537 133.467 283.183 134.832C285.828 136.197 287.876 138.16 289.326 140.72C290.777 143.237 291.503 146.245 291.503 149.744C291.503 153.2 290.777 156.208 289.326 158.768C287.876 161.328 285.828 163.291 283.183 164.656C280.537 166.021 277.423 166.704 273.839 166.704ZM273.839 158.256C275.716 158.256 277.209 157.595 278.319 156.272C279.428 154.907 279.983 152.731 279.983 149.744C279.983 146.757 279.428 144.603 278.319 143.28C277.209 141.915 275.716 141.232 273.839 141.232C271.919 141.232 270.404 141.915 269.295 143.28C268.185 144.603 267.631 146.757 267.631 149.744C267.631 152.731 268.185 154.907 269.295 156.272C270.404 157.595 271.919 158.256 273.839 158.256ZM297.083 166V142.32C297.083 140.869 297.04 139.397 296.955 137.904C296.869 136.411 296.741 134.939 296.571 133.488H307.579L308.219 139.12H307.515C308.453 137.157 309.84 135.621 311.675 134.512C313.509 133.36 315.664 132.784 318.139 132.784C320.528 132.784 322.555 133.36 324.219 134.512C325.925 135.621 327.163 137.392 327.931 139.824H326.843C327.909 137.605 329.445 135.877 331.451 134.64C333.499 133.403 335.781 132.784 338.299 132.784C342.011 132.784 344.784 133.915 346.619 136.176C348.453 138.395 349.371 141.872 349.371 146.608V166H337.915V146.992C337.915 144.987 337.616 143.579 337.019 142.768C336.421 141.915 335.461 141.488 334.139 141.488C332.475 141.488 331.173 142.085 330.235 143.28C329.339 144.475 328.891 146.117 328.891 148.208V166H317.499V146.992C317.499 144.987 317.179 143.579 316.539 142.768C315.941 141.915 315.003 141.488 313.723 141.488C312.059 141.488 310.757 142.085 309.819 143.28C308.923 144.475 308.475 146.117 308.475 148.208V166H297.083ZM373.36 166.704C367.472 166.704 362.885 165.189 359.6 162.16C356.357 159.131 354.736 154.971 354.736 149.68C354.736 146.395 355.418 143.472 356.784 140.912C358.149 138.352 360.069 136.368 362.544 134.96C365.018 133.509 367.92 132.784 371.248 132.784C374.533 132.784 377.264 133.509 379.44 134.96C381.658 136.368 383.322 138.331 384.432 140.848C385.541 143.323 386.096 146.203 386.096 149.488V151.92H364.272V146.544H377.712L376.624 147.44C376.624 145.008 376.154 143.216 375.216 142.064C374.32 140.869 373.04 140.272 371.376 140.272C369.456 140.272 367.984 140.997 366.96 142.448C365.978 143.856 365.488 145.989 365.488 148.848V150C365.488 152.859 366.192 154.949 367.6 156.272C369.008 157.595 371.034 158.256 373.68 158.256C375.386 158.256 376.986 158.064 378.48 157.68C380.016 157.296 381.466 156.677 382.832 155.824L385.776 163.248C384.154 164.357 382.277 165.211 380.144 165.808C378.01 166.405 375.749 166.704 373.36 166.704ZM426.66 166.704C422.052 166.704 418.575 165.616 416.228 163.44C413.924 161.221 412.772 157.872 412.772 153.392V141.872H406.692V133.488H412.772V125.808L424.164 123.12V133.488H432.1V141.872H424.164V152.944C424.164 154.821 424.591 156.08 425.444 156.72C426.297 157.317 427.321 157.616 428.516 157.616C429.241 157.616 429.86 157.573 430.372 157.488C430.927 157.36 431.503 157.189 432.1 156.976V165.744C431.161 166.128 430.223 166.384 429.284 166.512C428.388 166.64 427.513 166.704 426.66 166.704ZM452.464 166.704C448.837 166.704 445.701 166.021 443.056 164.656C440.41 163.291 438.362 161.349 436.911 158.832C435.461 156.272 434.736 153.243 434.736 149.744C434.736 146.203 435.461 143.173 436.911 140.656C438.362 138.139 440.41 136.197 443.056 134.832C445.701 133.467 448.837 132.784 452.464 132.784C456.048 132.784 459.162 133.467 461.808 134.832C464.453 136.197 466.501 138.16 467.951 140.72C469.402 143.237 470.128 146.245 470.128 149.744C470.128 153.2 469.402 156.208 467.951 158.768C466.501 161.328 464.453 163.291 461.808 164.656C459.162 166.021 456.048 166.704 452.464 166.704ZM452.464 158.256C454.341 158.256 455.834 157.595 456.944 156.272C458.053 154.907 458.608 152.731 458.608 149.744C458.608 146.757 458.053 144.603 456.944 143.28C455.834 141.915 454.341 141.232 452.464 141.232C450.544 141.232 449.029 141.915 447.92 143.28C446.81 144.603 446.256 146.757 446.256 149.744C446.256 152.731 446.81 154.907 447.92 156.272C449.029 157.595 450.544 158.256 452.464 158.256ZM510.848 166.704C506.24 166.704 502.762 165.616 500.416 163.44C498.112 161.221 496.96 157.872 496.96 153.392V141.872H490.88V133.488H496.96V125.808L508.352 123.12V133.488H516.288V141.872H508.352V152.944C508.352 154.821 508.778 156.08 509.632 156.72C510.485 157.317 511.509 157.616 512.704 157.616C513.429 157.616 514.048 157.573 514.56 157.488C515.114 157.36 515.69 157.189 516.288 156.976V165.744C515.349 166.128 514.41 166.384 513.472 166.512C512.576 166.64 511.701 166.704 510.848 166.704ZM520.708 166V118.896H532.1V139.184H531.14C532.206 137.093 533.721 135.515 535.684 134.448C537.646 133.339 539.886 132.784 542.404 132.784C546.201 132.784 549.038 133.915 550.916 136.176C552.793 138.437 553.732 141.872 553.732 146.48V166H542.34V146.992C542.34 145.029 541.977 143.621 541.252 142.768C540.569 141.915 539.524 141.488 538.116 141.488C536.281 141.488 534.809 142.064 533.7 143.216C532.633 144.368 532.1 145.883 532.1 147.76V166H520.708ZM577.735 166.704C571.847 166.704 567.26 165.189 563.975 162.16C560.732 159.131 559.111 154.971 559.111 149.68C559.111 146.395 559.793 143.472 561.159 140.912C562.524 138.352 564.444 136.368 566.919 134.96C569.393 133.509 572.295 132.784 575.623 132.784C578.908 132.784 581.639 133.509 583.815 134.96C586.033 136.368 587.697 138.331 588.807 140.848C589.916 143.323 590.471 146.203 590.471 149.488V151.92H568.647V146.544H582.087L580.999 147.44C580.999 145.008 580.529 143.216 579.591 142.064C578.695 140.869 577.415 140.272 575.751 140.272C573.831 140.272 572.359 140.997 571.335 142.448C570.353 143.856 569.863 145.989 569.863 148.848V150C569.863 152.859 570.567 154.949 571.975 156.272C573.383 157.595 575.409 158.256 578.055 158.256C579.761 158.256 581.361 158.064 582.855 157.68C584.391 157.296 585.841 156.677 587.207 155.824L590.151 163.248C588.529 164.357 586.652 165.211 584.519 165.808C582.385 166.405 580.124 166.704 577.735 166.704ZM304.848 252V206.88H336.528V215.904H316.688V225.056H335.056V234.08H316.688V252H304.848ZM356.776 252.704C353.149 252.704 350.013 252.021 347.368 250.656C344.723 249.291 342.675 247.349 341.224 244.832C339.773 242.272 339.048 239.243 339.048 235.744C339.048 232.203 339.773 229.173 341.224 226.656C342.675 224.139 344.723 222.197 347.368 220.832C350.013 219.467 353.149 218.784 356.776 218.784C360.36 218.784 363.475 219.467 366.12 220.832C368.765 222.197 370.813 224.16 372.264 226.72C373.715 229.237 374.44 232.245 374.44 235.744C374.44 239.2 373.715 242.208 372.264 244.768C370.813 247.328 368.765 249.291 366.12 250.656C363.475 252.021 360.36 252.704 356.776 252.704ZM356.776 244.256C358.653 244.256 360.147 243.595 361.256 242.272C362.365 240.907 362.92 238.731 362.92 235.744C362.92 232.757 362.365 230.603 361.256 229.28C360.147 227.915 358.653 227.232 356.776 227.232C354.856 227.232 353.341 227.915 352.232 229.28C351.123 230.603 350.568 232.757 350.568 235.744C350.568 238.731 351.123 240.907 352.232 242.272C353.341 243.595 354.856 244.256 356.776 244.256ZM380.02 252V228.384C380.02 226.891 379.977 225.397 379.892 223.904C379.807 222.411 379.679 220.939 379.508 219.488H390.516L391.732 229.472H390.004C390.431 227.04 391.113 225.035 392.052 223.456C392.991 221.877 394.164 220.704 395.572 219.936C396.98 219.168 398.644 218.784 400.564 218.784C401.46 218.784 402.121 218.827 402.548 218.912C403.017 218.955 403.508 219.083 404.02 219.296V229.28C402.953 228.811 402.1 228.512 401.46 228.384C400.82 228.256 399.988 228.192 398.964 228.192C397.215 228.192 395.785 228.512 394.676 229.152C393.567 229.749 392.756 230.688 392.244 231.968C391.775 233.248 391.54 234.891 391.54 236.896V252H380.02ZM419.426 252.704C415.287 252.704 412.215 251.573 410.21 249.312C408.247 247.008 407.266 243.531 407.266 238.88V219.488H418.658V238.944C418.658 240.651 418.999 241.931 419.682 242.784C420.407 243.595 421.495 244 422.946 244C424.567 244 425.89 243.424 426.914 242.272C427.98 241.077 428.514 239.52 428.514 237.6V219.488H439.906V252H428.834V246.176H429.794C428.77 248.267 427.383 249.888 425.634 251.04C423.884 252.149 421.815 252.704 419.426 252.704ZM447.02 252V228.32C447.02 226.869 446.977 225.397 446.892 223.904C446.807 222.411 446.679 220.939 446.508 219.488H457.516L458.156 225.12H457.452C458.391 223.157 459.777 221.621 461.612 220.512C463.447 219.36 465.601 218.784 468.076 218.784C470.465 218.784 472.492 219.36 474.156 220.512C475.863 221.621 477.1 223.392 477.868 225.824H476.78C477.847 223.605 479.383 221.877 481.388 220.64C483.436 219.403 485.719 218.784 488.236 218.784C491.948 218.784 494.721 219.915 496.556 222.176C498.391 224.395 499.308 227.872 499.308 232.608V252H487.852V232.992C487.852 230.987 487.553 229.579 486.956 228.768C486.359 227.915 485.399 227.488 484.076 227.488C482.412 227.488 481.111 228.085 480.172 229.28C479.276 230.475 478.828 232.117 478.828 234.208V252H467.436V232.992C467.436 230.987 467.116 229.579 466.476 228.768C465.879 227.915 464.94 227.488 463.66 227.488C461.996 227.488 460.695 228.085 459.756 229.28C458.86 230.475 458.412 232.117 458.412 234.208V252H447.02Z" fill="white"/>
<path d="M104.16 252V206.88H125.472C130.677 206.88 134.688 208.117 137.504 210.592C140.363 213.067 141.792 216.501 141.792 220.896C141.792 223.84 141.152 226.357 139.872 228.448C138.592 230.496 136.736 232.096 134.304 233.248C131.872 234.357 128.971 234.912 125.6 234.912L126.176 233.312H129.376C131.253 233.312 132.917 233.824 134.368 234.848C135.819 235.872 137.013 237.301 137.952 239.136L144.8 252H131.872L124.512 237.6C124.043 236.661 123.339 236.021 122.4 235.68C121.504 235.339 120.48 235.168 119.328 235.168H116V252H104.16ZM116 226.784H123.424C125.728 226.784 127.477 226.336 128.672 225.44C129.867 224.501 130.464 223.115 130.464 221.28C130.464 219.488 129.867 218.144 128.672 217.248C127.477 216.352 125.728 215.904 123.424 215.904H116V226.784ZM165.422 252.704C159.534 252.704 154.947 251.189 151.662 248.16C148.419 245.131 146.798 240.971 146.798 235.68C146.798 232.395 147.481 229.472 148.846 226.912C150.211 224.352 152.131 222.368 154.606 220.96C157.081 219.509 159.982 218.784 163.31 218.784C166.595 218.784 169.326 219.509 171.502 220.96C173.721 222.368 175.385 224.331 176.494 226.848C177.603 229.323 178.158 232.203 178.158 235.488V237.92H156.334V232.544H169.774L168.686 233.44C168.686 231.008 168.217 229.216 167.278 228.064C166.382 226.869 165.102 226.272 163.438 226.272C161.518 226.272 160.046 226.997 159.022 228.448C158.041 229.856 157.55 231.989 157.55 234.848V236C157.55 238.859 158.254 240.949 159.662 242.272C161.07 243.595 163.097 244.256 165.742 244.256C167.449 244.256 169.049 244.064 170.542 243.68C172.078 243.296 173.529 242.677 174.894 241.824L177.838 249.248C176.217 250.357 174.339 251.211 172.206 251.808C170.073 252.405 167.811 252.704 165.422 252.704ZM194.527 252V216.416H180.831V206.88H220.062V216.416H206.367V252H194.527ZM219.333 252V228.384C219.333 226.891 219.29 225.397 219.205 223.904C219.119 222.411 218.991 220.939 218.821 219.488H229.829L231.045 229.472H229.317C229.743 227.04 230.426 225.035 231.365 223.456C232.303 221.877 233.477 220.704 234.885 219.936C236.293 219.168 237.957 218.784 239.877 218.784C240.773 218.784 241.434 218.827 241.861 218.912C242.33 218.955 242.821 219.083 243.333 219.296V229.28C242.266 228.811 241.413 228.512 240.773 228.384C240.133 228.256 239.301 228.192 238.277 228.192C236.527 228.192 235.098 228.512 233.989 229.152C232.879 229.749 232.069 230.688 231.557 231.968C231.087 233.248 230.853 234.891 230.853 236.896V252H219.333ZM262.464 252.704C258.837 252.704 255.701 252.021 253.056 250.656C250.41 249.291 248.362 247.349 246.911 244.832C245.461 242.272 244.736 239.243 244.736 235.744C244.736 232.203 245.461 229.173 246.911 226.656C248.362 224.139 250.41 222.197 253.056 220.832C255.701 219.467 258.837 218.784 262.464 218.784C266.048 218.784 269.162 219.467 271.808 220.832C274.453 222.197 276.501 224.16 277.951 226.72C279.402 229.237 280.128 232.245 280.128 235.744C280.128 239.2 279.402 242.208 277.951 244.768C276.501 247.328 274.453 249.291 271.808 250.656C269.162 252.021 266.048 252.704 262.464 252.704ZM262.464 244.256C264.341 244.256 265.834 243.595 266.944 242.272C268.053 240.907 268.608 238.731 268.608 235.744C268.608 232.757 268.053 230.603 266.944 229.28C265.834 227.915 264.341 227.232 262.464 227.232C260.544 227.232 259.029 227.915 257.92 229.28C256.81 230.603 256.256 232.757 256.256 235.744C256.256 238.731 256.81 240.907 257.92 242.272C259.029 243.595 260.544 244.256 262.464 244.256Z" fill="url(#paint0_linear_5_636)"/>
<defs>
<linearGradient id="paint0_linear_5_636" x1="104" y1="230" x2="359.5" y2="230" gradientUnits="userSpaceOnUse">
<stop stop-color="#797DFC"/>
<stop offset="1" stop-color="#797DFC" stop-opacity="0"/>
</linearGradient>
</defs>
</svg>
